<svg xmlns="http://www.w3.org/2000/svg" viewBox="0 0 720 430" role="img"><title>Uranus's sideways tilt creates extreme seasons</title><rect width="720" height="430" rx="28" fill="#fff8df"/><circle cx="120" cy="215" r="54" fill="#f0c36e" stroke="#123e6d" stroke-width="8"><animate attributeName="r" begin="indefinite" dur="1.2s" values="54;62;54"/></circle><g stroke="#f0c36e" stroke-width="7" stroke-linecap="round"><path d="M120 126v-24M120 328v-24M31 215H7M233 215h-24M57 152l-17-17M200 295l-17-17M57 278l-17 17M200 135l-17 17"/></g><g transform="rotate(82 520 215)"><circle cx="520" cy="215" r="118" fill="#78d9df" stroke="#123e6d" stroke-width="10"/><path d="M520 70v290" stroke="#123e6d" stroke-width="7" stroke-dasharray="12 10"/></g><path d="M177 215h221" stroke="#d9853f" stroke-width="12" opacity=".48"/><path d="M520 97a118 118 0 0 1 0 236z" fill="#123e6d" opacity=".25"/><path d="M399 215h-24" stroke="#d9853f" stroke-width="10"/><path d="m384 200 20 15-20 15" fill="#d9853f"/></svg>
